<svg xmlns="http://www.w3.org/2000/svg" version="1.1" xmlns:xlink="http://www.w3.org/1999/xlink"
    xmlns:svgjs="http://svgjs.dev/svgjs" width="1000" height="750" viewBox="0 0 1000 750">
    <rect width="1000" height="750" fill="#a62a6c"></rect>
    <g transform="matrix(0.834,0,0,0.834,82.49454545454546,115.4193570850203)">
        <svg viewBox="0 0 396 247" data-background-color="#a62a6c"
            preserveAspectRatio="xMidYMid meet" height="623" width="1000"
            xmlns="http://www.w3.org/2000/svg" xmlns:xlink="http://www.w3.org/1999/xlink">
            <g id="tight-bounds" transform="matrix(1,0,0,1,0.2400000000000091,-0.09999999999999432)">
                <svg viewBox="0 0 395.52 247.2" height="247.2" width="395.52">
                    <g>
                        <svg></svg>
                    </g>
                    <g>
                        <svg viewBox="0 0 395.52 247.2" height="247.2" width="395.52">
                            <mask id="29b09292-9c45-466a-89ec-c15653036ea3">
                                <rect width="395.52" height="247.2" fill="white"></rect>
                                <g transform="matrix(1,0,0,1,65.02942287513116,37.08)" id="clone">
                                    <svg viewBox="0 0 265.46115424973766 173.04" height="173.04"
                                        width="265.46115424973766">
                                        <g>
                                            <svg viewBox="0 0 265.46115424973766 173.04"
                                                height="173.04" width="265.46115424973766">
                                                <g>
                                                    <svg viewBox="0 0 265.46115424973766 173.04"
                                                        height="173.04" width="265.46115424973766">
                                                        <g>
                                                            <svg
                                                                viewBox="0 0 265.46115424973766 173.04"
                                                                height="173.04"
                                                                width="265.46115424973766">
                                                                <g id="SvgjsG1060">
                                                                    <svg
                                                                        viewBox="0 0 265.46115424973766 173.04"
                                                                        height="173.04"
                                                                        width="265.46115424973766"
                                                                        id="SvgjsSvg1059">
                                                                        <g>
                                                                            <svg
                                                                                viewBox="0 0 265.46115424973766 173.04"
                                                                                height="173.04"
                                                                                width="265.46115424973766">
                                                                                <g
                                                                                    transform="matrix(1,0,0,1,0,0)">
                                                                                    <svg
                                                                                        width="265.46115424973766"
                                                                                        viewBox="-3.0500000044703484 -45.400001525878906 74.10000610351562 48.650001525878906"
                                                                                        height="173.04"
                                                                                        data-palette-color="#edbbba">
                                                                                        <path
                                                                                            d="M11.6 0.25Q9.75 0.25 8.95-0.58 8.15-1.4 8.15-3.7L8.15-3.7Q8.15-5.25 8.47-7.68 8.8-10.1 9.55-14.35L9.55-14.35Q10.85-22.2 11.6-27.95L11.6-27.95Q12.05-31.55 12.05-33.95L12.05-33.95Q12.05-36.2 10.4-36.2L10.4-36.2Q9.1-36.2 7.28-34.88 5.45-33.55 3.25-30.65L3.25-30.65Q2.55-29.7 1.7-29.7L1.7-29.7Q1-29.7 0.48-30.38-0.05-31.05-0.05-31.9L-0.05-31.9Q-0.05-32.7 0.28-33.52 0.6-34.35 1.35-35.4L1.35-35.4Q3.75-38.75 6.7-40.58 9.65-42.4 12.6-42.4L12.6-42.4Q15.35-42.4 16.82-40.65 18.3-38.9 18.3-35.55L18.3-35.55Q18.3-34.2 18.05-32.38 17.8-30.55 17.6-29.4 17.4-28.25 17.3-27.8L17.3-27.8Q20.15-35.95 23.7-39.18 27.25-42.4 31.5-42.4L31.5-42.4Q34.75-42.4 36.63-40.1 38.5-37.8 38.5-33.6L38.5-33.6Q38.5-31.95 38.05-29.5L38.05-29.5Q40.55-36.4 43.9-39.4 47.25-42.4 51.6-42.4L51.6-42.4Q55.1-42.4 56.98-40.15 58.85-37.9 58.85-33.85L58.85-33.85Q58.85-31.65 58.2-28.5L58.2-28.5 55.15-14.2Q54.65-11.7 54.65-9.9L54.65-9.9Q54.65-7.8 55.63-6.75 56.6-5.7 58.35-5.7L58.35-5.7Q60-5.7 61.58-6.8 63.15-7.9 65.3-10.45L65.3-10.45Q65.9-11.15 66.65-11.15L66.65-11.15Q67.3-11.15 67.67-10.55 68.05-9.95 68.05-8.9L68.05-8.9Q68.05-6.95 67.1-5.8L67.1-5.8Q64.5-2.65 61.95-1.2 59.4 0.25 56.6 0.25L56.6 0.25Q52.35 0.25 49.95-2.27 47.55-4.8 47.55-9.05L47.55-9.05Q47.55-12 48.75-17.6L48.75-17.6 50.75-26.75Q50.85-27.2 51.1-28.35 51.35-29.5 51.5-30.53 51.65-31.55 51.65-32.55L51.65-32.55Q51.65-34.3 50.98-35.18 50.3-36.05 49.05-36.05L49.05-36.05Q46.7-36.05 44.13-33.02 41.55-30 39.23-23 36.9-16 35.45-4.8L35.45-4.8Q35.1-1.8 34.23-0.78 33.35 0.25 31.4 0.25L31.4 0.25Q29.7 0.25 28.93-0.55 28.15-1.35 28.15-3.55L28.15-3.55Q28.15-5.6 28.7-8.93 29.25-12.25 30.1-16.75L30.1-16.75Q32.4-28.85 32.4-32.35L32.4-32.35Q32.4-34.25 31.68-35.15 30.95-36.05 29.5-36.05L29.5-36.05Q27.05-36.05 24.45-33.27 21.85-30.5 19.38-23.43 16.9-16.35 15.25-4.3L15.25-4.3Q14.9-1.75 14.23-0.75 13.55 0.25 11.6 0.25L11.6 0.25Z"
                                                                                            opacity="1"
                                                                                            transform="matrix(1,0,0,1,0,0)"
                                                                                            fill="black"
                                                                                            class="wordmark-text-0"
                                                                                            id="SvgjsPath1058"
                                                                                            stroke-width="5"
                                                                                            stroke="black"
                                                                                            stroke-linejoin="round"></path>
                                                                                    </svg>
                                                                                </g>
                                                                            </svg>
                                                                        </g>
                                                                    </svg>
                                                                </g>
                                                            </svg>
                                                        </g>
                                                    </svg>
                                                </g>
                                            </svg>
                                        </g>
                                    </svg>
                                </g>
                            </mask>
                            <g mask="url(#29b09292-9c45-466a-89ec-c15653036ea3)">
                                <g>
                                    <path xmlns="http://www.w3.org/2000/svg"
                                        d="M110.89 206.301c-4.783 0-8.209-1.073-10.277-3.219-2.068-2.12-3.102-6.153-3.102-12.1v0c0-4.007 0.414-9.152 1.241-15.435 0.853-6.257 2.249-14.879 4.188-25.867v0c3.361-20.295 6.011-37.876 7.95-52.742v0c1.163-9.307 1.745-17.064 1.746-23.269v0c0-5.817-2.133-8.726-6.399-8.725v0c-3.361 0-7.394 1.706-12.1 5.119-4.731 3.439-9.941 8.907-15.629 16.404v0c-1.81 2.456-3.813 3.684-6.011 3.684v0c-1.81 0-3.387-0.879-4.731-2.637-1.37-1.732-2.055-3.697-2.056-5.895v0c0-2.068 0.427-4.162 1.28-6.282 0.827-2.146 2.211-4.576 4.15-7.291v0c6.205-8.661 13.121-15.357 20.748-20.088 7.627-4.705 15.254-7.058 22.88-7.059v0c7.11 0 12.565 2.262 16.366 6.787 3.826 4.524 5.74 11.117 5.74 19.778v0c0 3.49-0.323 7.588-0.97 12.294-0.646 4.731-1.228 8.584-1.745 11.557-0.517 2.973-0.905 5.042-1.163 6.205v0c7.368-21.071 15.642-35.782 24.819-44.133 9.178-8.325 19.261-12.488 30.25-12.488v0c8.403 0 15.034 2.973 19.894 8.92 4.835 5.946 7.252 14.349 7.252 25.208v0c0 4.266-0.582 9.566-1.745 15.9v0c6.464-17.839 14.026-30.637 22.687-38.393 8.661-7.756 18.615-11.634 29.862-11.635v0c9.049 0 16.004 2.909 20.864 8.726 4.835 5.817 7.252 13.961 7.252 24.432v0c0 5.688-0.84 12.604-2.521 20.748v0l-11.828 55.457c-1.293 6.464-1.939 12.022-1.939 16.676v0c0 5.429 1.267 9.501 3.8 12.216 2.508 2.715 6.024 4.072 10.549 4.072v0c4.266 0 8.441-1.422 12.526-4.266 4.059-2.844 8.868-7.562 14.427-14.155v0c1.551-1.81 3.296-2.715 5.235-2.715v0c1.681 0 2.999 0.776 3.956 2.327 0.982 1.551 1.474 3.684 1.474 6.399v0c0 5.042-1.228 9.049-3.685 12.022v0c-6.722 8.144-13.379 14.09-19.972 17.839-6.593 3.749-13.509 5.623-20.748 5.624v0c-10.988 0-19.584-3.258-25.789-9.773-6.205-6.541-9.307-15.306-9.308-26.294v0c0-7.627 1.551-18.68 4.654-33.158v0l7.756-35.484c0.259-1.163 0.711-3.232 1.358-6.205 0.646-2.973 1.163-5.791 1.551-8.455 0.388-2.637 0.582-5.248 0.582-7.833v0c0-4.524-0.866-7.924-2.599-10.2-1.758-2.249-4.253-3.374-7.484-3.374v0c-6.076 0-12.436 3.917-19.081 11.751-6.67 7.808-13.005 20.761-19.003 38.859-6.024 18.098-10.91 41.625-14.659 70.581v0c-0.905 7.756-2.482 12.953-4.731 15.59-2.275 2.663-5.934 3.994-10.975 3.995v0c-4.395 0-7.588-1.034-9.579-3.103-2.017-2.068-3.025-5.946-3.025-11.634v0c0-5.3 0.711-12.255 2.133-20.864 1.422-8.584 3.232-18.692 5.429-30.327v0c5.946-31.283 8.92-51.45 8.92-60.499v0c0-4.912-0.931-8.532-2.792-10.858-1.887-2.327-4.705-3.49-8.455-3.491v0c-6.334 0-12.862 3.594-19.584 10.781-6.722 7.162-13.276 19.882-19.662 38.161-6.412 18.305-11.751 43.034-16.017 74.188v0c-0.905 6.593-2.223 11.182-3.955 13.768-1.758 2.585-5.158 3.878-10.2 3.878z"
                                        fill="#edbbba" fill-rule="nonzero" stroke="none"
                                        stroke-width="1" stroke-linecap="butt"
                                        stroke-linejoin="miter" stroke-miterlimit="10"
                                        stroke-dasharray="" stroke-dashoffset="0" font-family="none"
                                        font-weight="none" font-size="none" text-anchor="none"
                                        style="mix-blend-mode: normal"
                                        data-fill-palette-color="tertiary"></path>
                                </g>
                            </g>
                            <g transform="matrix(1,0,0,1,65.02942287513116,37.08)">
                                <svg viewBox="0 0 265.46115424973766 173.04" height="173.04"
                                    width="265.46115424973766">
                                    <g>
                                        <svg viewBox="0 0 265.46115424973766 173.04" height="173.04"
                                            width="265.46115424973766">
                                            <g>
                                                <svg viewBox="0 0 265.46115424973766 173.04"
                                                    height="173.04" width="265.46115424973766">
                                                    <g>
                                                        <svg viewBox="0 0 265.46115424973766 173.04"
                                                            height="173.04"
                                                            width="265.46115424973766">
                                                            <g id="textblocktransform">
                                                                <svg
                                                                    viewBox="0 0 265.46115424973766 173.04"
                                                                    height="173.04"
                                                                    width="265.46115424973766"
                                                                    id="textblock">
                                                                    <g>
                                                                        <svg
                                                                            viewBox="0 0 265.46115424973766 173.04"
                                                                            height="173.04"
                                                                            width="265.46115424973766">
                                                                            <g
                                                                                transform="matrix(1,0,0,1,0,0)">
                                                                                <svg
                                                                                    width="265.46115424973766"
                                                                                    viewBox="-3.0500000044703484 -45.400001525878906 74.10000610351562 48.650001525878906"
                                                                                    height="173.04"
                                                                                    data-palette-color="#edbbba">
                                                                                    <path
                                                                                        d="M11.6 0.25Q9.75 0.25 8.95-0.58 8.15-1.4 8.15-3.7L8.15-3.7Q8.15-5.25 8.47-7.68 8.8-10.1 9.55-14.35L9.55-14.35Q10.85-22.2 11.6-27.95L11.6-27.95Q12.05-31.55 12.05-33.95L12.05-33.95Q12.05-36.2 10.4-36.2L10.4-36.2Q9.1-36.2 7.28-34.88 5.45-33.55 3.25-30.65L3.25-30.65Q2.55-29.7 1.7-29.7L1.7-29.7Q1-29.7 0.48-30.38-0.05-31.05-0.05-31.9L-0.05-31.9Q-0.05-32.7 0.28-33.52 0.6-34.35 1.35-35.4L1.35-35.4Q3.75-38.75 6.7-40.58 9.65-42.4 12.6-42.4L12.6-42.4Q15.35-42.4 16.82-40.65 18.3-38.9 18.3-35.55L18.3-35.55Q18.3-34.2 18.05-32.38 17.8-30.55 17.6-29.4 17.4-28.25 17.3-27.8L17.3-27.8Q20.15-35.95 23.7-39.18 27.25-42.4 31.5-42.4L31.5-42.4Q34.75-42.4 36.63-40.1 38.5-37.8 38.5-33.6L38.5-33.6Q38.5-31.95 38.05-29.5L38.05-29.5Q40.55-36.4 43.9-39.4 47.25-42.4 51.6-42.4L51.6-42.4Q55.1-42.4 56.98-40.15 58.85-37.9 58.85-33.85L58.85-33.85Q58.85-31.65 58.2-28.5L58.2-28.5 55.15-14.2Q54.65-11.7 54.65-9.9L54.65-9.9Q54.65-7.8 55.63-6.75 56.6-5.7 58.35-5.7L58.35-5.7Q60-5.7 61.58-6.8 63.15-7.9 65.3-10.45L65.3-10.45Q65.9-11.15 66.65-11.15L66.65-11.15Q67.3-11.15 67.67-10.55 68.05-9.95 68.05-8.9L68.05-8.9Q68.05-6.95 67.1-5.8L67.1-5.8Q64.5-2.65 61.95-1.2 59.4 0.25 56.6 0.25L56.6 0.25Q52.35 0.25 49.95-2.27 47.55-4.8 47.55-9.05L47.55-9.05Q47.55-12 48.75-17.6L48.75-17.6 50.75-26.75Q50.85-27.2 51.1-28.35 51.35-29.5 51.5-30.53 51.65-31.55 51.65-32.55L51.65-32.55Q51.65-34.3 50.98-35.18 50.3-36.05 49.05-36.05L49.05-36.05Q46.7-36.05 44.13-33.02 41.55-30 39.23-23 36.9-16 35.45-4.8L35.45-4.8Q35.1-1.8 34.23-0.78 33.35 0.25 31.4 0.25L31.4 0.25Q29.7 0.25 28.93-0.55 28.15-1.35 28.15-3.55L28.15-3.55Q28.15-5.6 28.7-8.93 29.25-12.25 30.1-16.75L30.1-16.75Q32.4-28.85 32.4-32.35L32.4-32.35Q32.4-34.25 31.68-35.15 30.95-36.05 29.5-36.05L29.5-36.05Q27.05-36.05 24.45-33.27 21.85-30.5 19.38-23.43 16.9-16.35 15.25-4.3L15.25-4.3Q14.9-1.75 14.23-0.75 13.55 0.25 11.6 0.25L11.6 0.25Z"
                                                                                        opacity="1"
                                                                                        transform="matrix(1,0,0,1,0,0)"
                                                                                        fill="#edbbba"
                                                                                        class="wordmark-text-0"
                                                                                        data-fill-palette-color="primary"
                                                                                        id="text-0"></path>
                                                                                </svg>
                                                                            </g>
                                                                        </svg>
                                                                    </g>
                                                                </svg>
                                                            </g>
                                                        </svg>
                                                    </g>
                                                </svg>
                                            </g>
                                        </svg>
                                    </g>
                                </svg>
                            </g>
                        </svg>
                    </g>
                    <defs></defs>
                </svg>
                <rect width="395.52" height="247.2" fill="none" stroke="none" visibility="hidden"></rect>
            </g>
        </svg>
    </g>
</svg>